<svg width="25" height="25" viewBox="0 0 25 25" fill="none" xmlns="http://www.w3.org/2000/svg">
<path fill-rule="evenodd" clip-rule="evenodd" d="M7.24677 5.90155L7.24677 5.90155L5.53095 7.61738C4.95289 8.19544 4.66386 8.48447 4.51162 8.85201C4.35938 9.21955 4.35938 9.6283 4.35938 10.4458V15.056C4.35938 15.8817 4.35938 16.2946 4.51443 16.6651C4.66948 17.0356 4.96356 17.3254 5.55172 17.905L7.25042 19.579C7.82683 20.1471 8.11503 20.4311 8.47961 20.5805C8.84419 20.73 9.24882 20.73 10.0581 20.73H14.7025C15.52 20.73 15.9288 20.73 16.2963 20.5777C16.6639 20.4255 16.9529 20.1365 17.5309 19.5584L19.1878 17.9016C19.7659 17.3235 20.0549 17.0345 20.2071 16.6669C20.3594 16.2994 20.3594 15.8906 20.3594 15.0731V10.4287C20.3594 9.61943 20.3594 9.2148 20.2099 8.85022C20.0605 8.48564 19.7765 8.19744 19.2084 7.62103L17.5344 5.92233C16.9548 5.33417 16.665 5.04009 16.2945 4.88503C15.924 4.72998 15.5111 4.72998 14.6853 4.72998H10.0752C9.2577 4.72998 8.84895 4.72998 8.48141 4.88222C8.11386 5.03446 7.82483 5.32349 7.24677 5.90155ZM8.80659 10.8356C8.31261 10.5886 7.71194 10.7888 7.46495 11.2828C7.21796 11.7767 7.41818 12.3774 7.91216 12.6244L8.21773 12.7772L7.96495 13.2828C7.71796 13.7767 7.91818 14.3774 8.41216 14.6244C8.90614 14.8714 9.50681 14.6712 9.7538 14.1772L10.0943 13.4961C10.5112 13.6045 10.934 13.6825 11.3594 13.73V14.73C11.3594 15.2823 11.8071 15.73 12.3594 15.73C12.9117 15.73 13.3594 15.2823 13.3594 14.73V13.73C13.7848 13.6825 14.2076 13.6045 14.6244 13.4961L14.9649 14.1772C15.2119 14.6712 15.8126 14.8714 16.3066 14.6244C16.8006 14.3774 17.0008 13.7767 16.7538 13.2828L16.501 12.7772L16.8066 12.6244C17.3006 12.3774 17.5008 11.7767 17.2538 11.2828C17.0068 10.7888 16.4061 10.5886 15.9122 10.8356L15.4899 11.0467C13.5192 12.032 11.1996 12.032 9.22888 11.0467L8.80659 10.8356Z" fill="#E4EDFF"/>
</svg>
