<svg width="16" height="16" viewBox="0 0 16 16" fill="none" xmlns="http://www.w3.org/2000/svg">
<g clip-path="url(#clip0_3201_5159)">
<rect width="16" height="16" fill="white"/>
<path d="M12.4397 7.36193C12.4397 7.35258 12.442 7.3444 12.4465 7.33739C12.4532 7.33037 12.4622 7.31752 12.4735 7.29882C12.4735 7.28245 12.4847 7.22401 12.5072 7.12349C12.5275 7.04168 12.5522 6.947 12.5815 6.83947C12.5882 6.83246 12.5916 6.8196 12.5916 6.8009L12.6254 6.6361C12.6254 6.57766 12.64 6.54259 12.6692 6.5309C12.6917 6.50753 12.7232 6.50168 12.7637 6.51337C12.8042 6.52506 12.8459 6.55077 12.8886 6.59051C12.8976 6.59519 12.9066 6.59753 12.9156 6.59753L12.9629 6.6396C12.9584 6.64895 12.9561 6.69688 12.9561 6.78337C12.9561 6.86752 12.9572 6.91895 12.9595 6.93765V6.99726C12.9595 7.02765 12.9606 7.04752 12.9629 7.05687V7.09895L12.9595 7.16557C12.9685 7.21232 12.9696 7.28011 12.9629 7.36894V7.47764C12.9606 7.48466 12.9606 7.49635 12.9629 7.51271C12.9651 7.52674 12.9674 7.54193 12.9696 7.55829C12.9674 7.56297 12.9662 7.57232 12.9662 7.58634V7.6144C12.9707 7.64245 12.9719 7.66115 12.9696 7.6705L12.9764 7.77569C12.9854 7.80374 12.9933 7.84232 13 7.89141C12.9978 7.90309 12.9978 7.9253 13 7.95803C12.9888 7.98608 12.9629 8.00011 12.9224 8.00011C12.8819 7.99543 12.8515 7.98257 12.8312 7.96153C12.82 7.9592 12.8054 7.95218 12.7874 7.9405C12.7806 7.9405 12.7705 7.93699 12.757 7.92998C12.7457 7.91595 12.7345 7.9066 12.7232 7.90193C12.658 7.82478 12.6197 7.73595 12.6085 7.63543C12.604 7.63076 12.6017 7.62492 12.6017 7.6179C12.5837 7.66466 12.541 7.74413 12.4735 7.85634C12.451 7.88439 12.4352 7.90543 12.4262 7.91946C12.4172 7.93582 12.4105 7.94634 12.406 7.95102C12.3902 7.98374 12.343 7.98725 12.2642 7.96153C12.2305 7.94985 12.2091 7.944 12.2001 7.944L12.0955 7.91244C12.0505 7.88907 12.0111 7.85868 11.9773 7.82128C11.9683 7.82128 11.9582 7.8166 11.947 7.80725C11.9357 7.79556 11.929 7.78504 11.9267 7.77569L11.8862 7.70907C11.8592 7.68336 11.8367 7.64362 11.8187 7.58985C11.8165 7.5618 11.8131 7.53725 11.8086 7.51622V7.49518L11.8052 7.47063L11.812 7.38297L11.8423 7.19012C11.8513 7.18077 11.8558 7.16323 11.8558 7.13752L11.866 7.0709C11.8772 7.05453 11.8828 7.03466 11.8828 7.01129C11.8873 7.00427 11.8907 6.98791 11.893 6.9622C11.8997 6.95285 11.9031 6.93999 11.9031 6.92363C11.9053 6.90726 11.9121 6.87804 11.9233 6.83596C11.9368 6.80791 11.9436 6.76934 11.9436 6.72025C11.9436 6.66882 11.9526 6.61038 11.9706 6.54493C12.0156 6.48181 12.082 6.46545 12.1697 6.49584C12.1855 6.49584 12.2091 6.50753 12.2406 6.5309C12.2743 6.55194 12.2991 6.56597 12.3148 6.57298C12.3328 6.59168 12.3441 6.60571 12.3486 6.61506C12.3396 6.62441 12.334 6.63727 12.3317 6.65363C12.2642 6.89908 12.2237 7.09427 12.2102 7.23921C12.208 7.26492 12.2023 7.29765 12.1933 7.33739C12.1866 7.37713 12.1798 7.41804 12.1731 7.46011C12.1551 7.57232 12.1765 7.63076 12.2372 7.63543C12.2597 7.63777 12.2811 7.6331 12.3013 7.62141C12.3216 7.60972 12.3328 7.59453 12.3351 7.57583C12.3981 7.44959 12.433 7.3783 12.4397 7.36193Z" fill="#0A3967"/>
<path d="M11.0046 6.92362C11.0068 6.9166 11.0113 6.8757 11.0181 6.80089C11.0136 6.79388 11.0079 6.76816 11.0012 6.72375C10.9832 6.68635 10.9596 6.6583 10.9303 6.63959C10.8943 6.62323 10.8729 6.61505 10.8662 6.61505C10.8459 6.62206 10.8313 6.63024 10.8223 6.63959C10.8156 6.64661 10.7964 6.67933 10.7649 6.73778C10.7357 6.79622 10.7109 6.89323 10.6907 7.02881C10.6727 7.16439 10.6637 7.26257 10.6637 7.32335C10.6637 7.38413 10.6659 7.45893 10.6704 7.54777C10.6749 7.63426 10.6929 7.67517 10.7244 7.67049C10.7537 7.66582 10.7942 7.58166 10.8459 7.41803C10.8482 7.40634 10.8561 7.3853 10.8696 7.35491L11.0046 6.92362ZM11.3995 6.77985C11.3995 6.90375 11.4118 7.01712 11.4366 7.11998C11.4478 7.22283 11.4681 7.3327 11.4973 7.44958C11.5041 7.49634 11.5063 7.51971 11.5041 7.51971C11.5603 7.64828 11.5918 7.72543 11.5986 7.75114C11.6053 7.77452 11.6042 7.79439 11.5952 7.81075V7.80724C11.5885 7.82828 11.5671 7.84698 11.5311 7.86335C11.4973 7.88205 11.467 7.89373 11.44 7.89841C11.3545 7.92646 11.3038 7.89257 11.2881 7.79672C11.2791 7.78971 11.2656 7.77568 11.2476 7.75465C11.2318 7.73127 11.2228 7.71257 11.2206 7.69854C11.2183 7.68218 11.2104 7.66698 11.1969 7.65296C11.1924 7.64127 11.1823 7.62608 11.1666 7.60737C11.1508 7.58867 11.1418 7.56997 11.1396 7.55127L11.1294 7.4566L11.1227 7.45309C11.0867 7.53023 11.0631 7.584 11.0518 7.61439C11.0248 7.69387 10.9776 7.78503 10.9101 7.88789C10.8336 7.97672 10.7402 8.00243 10.6299 7.96503C10.5894 7.96269 10.5568 7.94984 10.532 7.92646C10.5095 7.90309 10.4938 7.89023 10.4848 7.88789C10.4713 7.88322 10.4522 7.86568 10.4274 7.83529C10.3869 7.77919 10.3622 7.6962 10.3532 7.58634V7.49517C10.3599 7.48348 10.3599 7.42738 10.3532 7.32686V7.30582C10.3397 7.23569 10.3329 7.19361 10.3329 7.17959C10.3329 7.16556 10.3352 7.14686 10.3397 7.12348C10.3442 7.10011 10.3453 7.08608 10.343 7.08141C10.3408 7.07439 10.3397 7.06387 10.3397 7.04985V6.99725L10.3565 6.8079C10.3813 6.72609 10.4083 6.65245 10.4375 6.587C10.4465 6.54726 10.4634 6.5157 10.4882 6.49232C10.5444 6.42921 10.5748 6.39297 10.5793 6.38362C10.595 6.34856 10.6535 6.32051 10.7548 6.29947L10.8122 6.30298C10.8347 6.30298 10.8549 6.30648 10.8729 6.31349C10.8909 6.31817 10.9033 6.32051 10.9101 6.32051C10.9416 6.33687 10.9674 6.34505 10.9877 6.34505C11.0079 6.34505 11.0417 6.36142 11.0889 6.39414C11.1024 6.39648 11.1362 6.41635 11.1902 6.45375C11.2487 6.49349 11.2824 6.5157 11.2914 6.52038L11.3792 6.55193C11.404 6.57297 11.4163 6.58466 11.4163 6.587C11.4163 6.58934 11.4107 6.65362 11.3995 6.77985Z" fill="#0A3967"/>
<path d="M9.3634 5.62974C9.41965 5.62974 9.4489 5.68584 9.45115 5.79805C9.4579 5.96168 9.45228 6.12648 9.43428 6.29246C9.41853 6.45843 9.40503 6.62674 9.39378 6.79738L9.36002 6.97972L9.3634 6.99024C9.41965 6.96452 9.47478 6.9166 9.52878 6.84647L9.53553 6.84297C9.56703 6.81024 9.59741 6.7857 9.62666 6.76933C9.63341 6.75297 9.66154 6.72375 9.71104 6.68167C9.71779 6.68167 9.73241 6.66765 9.75492 6.63959C9.80892 6.6092 9.84154 6.5905 9.8528 6.58349C9.86405 6.57414 9.8753 6.56713 9.88655 6.56245C9.8978 6.55544 9.92142 6.54959 9.95742 6.54492C9.95967 6.54726 9.9698 6.55193 9.9878 6.55895C10.0058 6.56596 10.0182 6.57297 10.0249 6.57998C10.0677 6.62206 10.0587 6.6805 9.99793 6.75531C9.92817 6.85582 9.85617 6.93881 9.78192 7.00426C9.70766 7.06972 9.65366 7.1118 9.61991 7.1305C9.63341 7.16089 9.65591 7.19712 9.68741 7.2392C9.71441 7.314 9.74142 7.36426 9.76842 7.38997C9.81117 7.46244 9.8708 7.53608 9.9473 7.61088C9.9518 7.61322 9.95855 7.62257 9.96755 7.63893C9.9788 7.6553 10.0036 7.68919 10.0418 7.74062C10.0756 7.764 10.0924 7.79555 10.0924 7.83529C10.0902 7.85166 10.0756 7.86218 10.0486 7.86685C10.0238 7.87386 9.99568 7.87386 9.96417 7.86685C9.95292 7.87153 9.92142 7.86568 9.86967 7.84932C9.86517 7.84464 9.85505 7.8388 9.83929 7.83179C9.83029 7.83179 9.81229 7.82244 9.78529 7.80374C9.75154 7.80374 9.73017 7.79906 9.72116 7.78971C9.65816 7.76633 9.62554 7.74296 9.62329 7.71958C9.60528 7.71491 9.58841 7.69971 9.57266 7.674C9.56141 7.66465 9.54453 7.63543 9.52203 7.58634C9.51303 7.584 9.49953 7.57114 9.48153 7.54776C9.46353 7.52205 9.4534 7.50686 9.45115 7.50218C9.45115 7.49517 9.4489 7.48815 9.4444 7.48114C9.4399 7.47179 9.43428 7.46127 9.42753 7.44958C9.38028 7.36777 9.34765 7.31751 9.32965 7.29881L9.3229 7.38296L9.31277 7.43556C9.31952 7.45426 9.31952 7.47062 9.31277 7.48465C9.30827 7.5127 9.30602 7.53491 9.30602 7.55127L9.29252 7.69854V7.76516C9.29477 7.79789 9.29027 7.81776 9.27902 7.82477C9.27002 7.84815 9.23514 7.85516 9.17439 7.84581L9.10689 7.82127L9.08664 7.80724C9.07314 7.80724 9.05626 7.80023 9.03601 7.7862C9.02701 7.7862 9.00676 7.77919 8.97526 7.76516C8.94601 7.7488 8.92801 7.73244 8.92126 7.71607C8.89651 7.6553 8.89313 7.60153 8.91113 7.55478C8.90438 7.5314 8.90213 7.51153 8.90438 7.49517C8.91338 7.4601 8.91563 7.4379 8.91113 7.42855C8.91113 7.40984 8.91226 7.39114 8.91451 7.37244C8.91676 7.35374 8.91563 7.33621 8.91113 7.31985C8.91563 7.29647 8.92126 7.26374 8.92801 7.22166C8.92576 7.20296 8.92576 7.1866 8.92801 7.17257C8.93026 7.15855 8.93138 7.14686 8.93138 7.13751C8.93813 7.11881 8.94151 7.09543 8.94151 7.06738C8.94151 7.0253 8.94488 6.99024 8.95163 6.96219C8.96513 6.91543 8.96738 6.87803 8.95838 6.84998L9.00564 6.53089C9.04389 6.22466 9.08551 5.98155 9.13052 5.80155L9.12377 5.72441C9.11476 5.6987 9.12826 5.66714 9.16427 5.62974C9.20027 5.60402 9.22727 5.5935 9.24527 5.59818C9.26327 5.58649 9.30265 5.59701 9.3634 5.62974Z" fill="#0A3967"/>
<path d="M7.76944 7.15855C7.75819 7.21231 7.75032 7.26842 7.74581 7.32686C7.74581 7.42971 7.75819 7.50685 7.78294 7.55828C7.79419 7.56997 7.80094 7.58049 7.80319 7.58984C7.80769 7.59685 7.81782 7.6062 7.83357 7.61789C7.85832 7.5875 7.87632 7.56062 7.88757 7.53724L7.98207 7.36543C8.02933 7.23218 8.06983 7.12699 8.10358 7.04985C8.10358 7.03582 8.10358 7.00076 8.10358 6.94465C8.10583 6.88621 8.08558 6.83011 8.04283 6.77634C8.02033 6.7553 8.00345 6.7331 7.9922 6.70972C7.98095 6.68401 7.95845 6.65712 7.9247 6.62907C7.8842 6.64544 7.85494 6.68985 7.83694 6.76232C7.83694 6.79738 7.83132 6.82894 7.82007 6.85699C7.79757 6.91777 7.78632 6.9692 7.78632 7.01128C7.77507 7.0627 7.76944 7.11179 7.76944 7.15855ZM8.5086 6.87803C8.5086 6.9318 8.51422 6.9879 8.52547 7.04634C8.52547 7.06504 8.53222 7.13751 8.54572 7.26374C8.56147 7.38763 8.56935 7.50218 8.56935 7.60737C8.56935 7.84581 8.55135 8.02581 8.51535 8.14737C8.5086 8.18944 8.49285 8.23386 8.46809 8.28061C8.44559 8.32736 8.43434 8.35541 8.43434 8.36477C8.42084 8.39048 8.37922 8.44892 8.30946 8.54009L8.27571 8.57165C8.27121 8.57165 8.25771 8.58333 8.23521 8.60671C8.14971 8.66048 8.06758 8.68736 7.98883 8.68736C7.91232 8.68736 7.83807 8.66398 7.76607 8.61723C7.76382 8.61723 7.73569 8.59736 7.68169 8.55762C7.65694 8.54827 7.63669 8.51671 7.62093 8.46295C7.61868 8.43957 7.61756 8.42438 7.61756 8.41736C7.62206 8.41736 7.62769 8.39399 7.63444 8.34723C7.63669 8.34022 7.64681 8.31918 7.66481 8.28412C7.67606 8.24204 7.70869 8.22568 7.76269 8.23503C7.78969 8.23736 7.80882 8.24321 7.82007 8.25256C7.82682 8.25957 7.84144 8.28645 7.86395 8.33321C7.87745 8.37061 7.88982 8.39632 7.90107 8.41035C7.91232 8.42671 7.92582 8.43373 7.94157 8.43139C7.98657 8.42671 8.0237 8.39282 8.05295 8.3297C8.05745 8.32736 8.06758 8.31567 8.08333 8.29464C8.13958 8.22451 8.17108 8.14152 8.17783 8.04568C8.17783 8.03633 8.18008 7.99425 8.18458 7.91945V7.81776C8.18008 7.75698 8.18121 7.67516 8.18796 7.57231C8.18796 7.50452 8.18458 7.4601 8.17783 7.43906C8.16658 7.46945 8.12383 7.55828 8.04958 7.70555L8.0192 7.75114C7.98095 7.80958 7.93032 7.84347 7.86732 7.85282C7.84932 7.84114 7.81782 7.83529 7.77282 7.83529H7.75257C7.67381 7.82594 7.61643 7.80724 7.58043 7.77919C7.54668 7.76516 7.51968 7.74062 7.49943 7.70555L7.45555 7.64594C7.45555 7.63425 7.44993 7.6214 7.43868 7.60737C7.42968 7.59101 7.42405 7.58166 7.4218 7.57932C7.41955 7.57465 7.41505 7.56646 7.4083 7.55478C7.40155 7.54309 7.3948 7.50218 7.38805 7.43205C7.3768 7.31751 7.37905 7.23218 7.3948 7.17608C7.3948 7.12933 7.39818 7.09192 7.40493 7.06387C7.40493 7.00076 7.4128 6.93647 7.42855 6.87102C7.42855 6.84063 7.43755 6.78452 7.45555 6.70271C7.48255 6.63959 7.49943 6.60102 7.50618 6.58699L7.55681 6.50635C7.57706 6.48063 7.59281 6.46193 7.60406 6.45024C7.61756 6.43622 7.64119 6.42336 7.67494 6.41167L7.70869 6.38713L7.76269 6.3731C7.80544 6.35908 7.86394 6.36375 7.9382 6.38713C7.9607 6.38713 7.9832 6.39531 8.0057 6.41167C8.05295 6.42804 8.08333 6.43972 8.09683 6.44674C8.11033 6.45375 8.12721 6.45959 8.14746 6.46427C8.16096 6.43388 8.18346 6.41284 8.21496 6.40115C8.22396 6.39648 8.24871 6.39648 8.28921 6.40115C8.30271 6.40817 8.32071 6.4105 8.34321 6.40817C8.39497 6.40349 8.43097 6.43271 8.45122 6.49583C8.46472 6.55427 8.47709 6.63725 8.48835 6.74479L8.5086 6.87803Z" fill="#0A3967"/>
<path d="M6.71189 7.70906L6.69164 7.64945L6.65451 7.41452C6.64326 7.3701 6.63763 7.33036 6.63763 7.2953L6.65113 7.14102C6.65113 7.1153 6.65226 7.10128 6.65451 7.09894C6.62751 7.09894 6.58701 7.13283 6.533 7.20062C6.5285 7.20764 6.52175 7.21933 6.51275 7.23569C6.41825 7.39231 6.362 7.58049 6.344 7.80023C6.326 7.83997 6.30237 7.85984 6.27312 7.85984C6.21237 7.84581 6.17861 7.8388 6.17186 7.8388L6.14824 7.84231H6.10436C6.05261 7.83763 6.01886 7.81659 6.00311 7.77919C5.99411 7.7675 5.98961 7.73711 5.98961 7.68802V7.63893L5.97948 7.44608V7.15855C5.97948 7.12582 5.97723 7.08491 5.97273 7.03582C5.96823 6.98206 5.96711 6.8979 5.96936 6.78336C5.97161 6.66648 5.97048 6.60453 5.96598 6.59752C5.96148 6.58816 5.95923 6.57648 5.95923 6.56245C5.95923 6.54843 5.96261 6.5344 5.96936 6.52037C5.97611 6.50635 6.00648 6.49115 6.06048 6.47479C6.08974 6.45609 6.11449 6.44674 6.13474 6.44674C6.16624 6.45375 6.20674 6.46778 6.25624 6.48882C6.28999 6.49583 6.30687 6.52972 6.30687 6.5905C6.31137 6.69102 6.31137 6.76349 6.30687 6.8079C6.30462 6.85232 6.30574 6.94232 6.31025 7.0779C6.47675 6.74596 6.62526 6.54609 6.75576 6.4783C6.76701 6.46661 6.78389 6.46076 6.80639 6.46076C6.82889 6.46076 6.85477 6.47245 6.88402 6.49583C6.91327 6.5192 6.93352 6.5344 6.94477 6.54141C6.95602 6.54843 6.9684 6.56011 6.9819 6.57648C6.99765 6.59284 7.01002 6.60336 7.01902 6.60803C7.04602 6.65479 7.05165 6.76466 7.0359 6.93764C7.03365 6.96336 7.0314 6.98673 7.02915 7.00777C7.0269 7.02647 7.02577 7.06855 7.02577 7.134C7.02577 7.19946 7.0269 7.24504 7.02915 7.27075C7.0359 7.35257 7.03927 7.40049 7.03927 7.41452L7.05615 7.54776C7.07865 7.60153 7.0899 7.64361 7.0899 7.674C7.09215 7.70205 7.1124 7.74763 7.15065 7.81075C7.16641 7.84581 7.15965 7.87386 7.1304 7.8949C7.0854 7.91828 7.06065 7.92763 7.05615 7.92295C7.0539 7.92062 7.04152 7.92295 7.01902 7.92997C6.99652 7.93932 6.95602 7.94165 6.89752 7.93698C6.86827 7.92997 6.83902 7.91127 6.80977 7.88088L6.75914 7.82828C6.74114 7.80023 6.72876 7.76984 6.72201 7.73711C6.71076 7.72542 6.70739 7.71607 6.71189 7.70906Z" fill="#0A3967"/>
<path d="M5.11658 6.83244C5.11433 6.78102 5.10308 6.74245 5.08283 6.71673C5.06258 6.68868 5.02545 6.67232 4.97145 6.66764C4.9557 6.67933 4.93432 6.71907 4.90732 6.78686C4.88257 6.85231 4.86682 6.92244 4.86007 6.99725C4.83757 7.10945 4.82632 7.22166 4.82632 7.33387C4.82857 7.44841 4.84657 7.53257 4.88032 7.58633C4.88482 7.59568 4.88932 7.59919 4.89382 7.59685C4.90507 7.59685 4.92307 7.57347 4.94782 7.52672C5.06708 7.30231 5.12333 7.07088 5.11658 6.83244ZM5.22121 7.50218L5.17058 7.63893C5.17058 7.6436 5.13795 7.69386 5.0727 7.78971C5.05245 7.83412 5.0142 7.85867 4.95795 7.86334C4.90395 7.86802 4.85107 7.86217 4.79932 7.84581C4.72956 7.82009 4.67669 7.78971 4.64068 7.75464C4.60468 7.71958 4.56868 7.66114 4.53268 7.57932C4.49893 7.49516 4.48093 7.4262 4.47868 7.37244C4.46743 7.2953 4.4618 7.24621 4.4618 7.22517V7.14101C4.4618 7.05686 4.46518 7.00777 4.47193 6.99374C4.47418 6.98439 4.4798 6.95985 4.4888 6.92011C4.50005 6.82192 4.52705 6.72842 4.56981 6.63959C4.65306 6.46894 4.73856 6.38128 4.82632 6.37661H4.84319C4.84769 6.37894 4.85444 6.38011 4.86344 6.38011H4.90732C4.98607 6.38713 5.03445 6.39414 5.05245 6.40115C5.0862 6.4105 5.11545 6.41518 5.1402 6.41518L5.22796 6.43271C5.25496 6.43037 5.28984 6.43622 5.33259 6.45024C5.37759 6.46427 5.40122 6.47479 5.40347 6.4818C5.40797 6.48881 5.41472 6.51453 5.42372 6.55894C5.43272 6.60336 5.43834 6.63608 5.44059 6.65712C5.44509 6.67582 5.44847 6.69569 5.45072 6.71673C5.46872 6.88738 5.49797 7.04634 5.53847 7.19361C5.54072 7.20062 5.54297 7.21114 5.54522 7.22517C5.54747 7.23919 5.55535 7.26724 5.56885 7.30932C5.58235 7.34906 5.59247 7.38296 5.59922 7.41101C5.60597 7.43906 5.61835 7.47646 5.63635 7.52322C5.64985 7.55828 5.6701 7.59919 5.6971 7.64594C5.7466 7.71841 5.72073 7.77451 5.61947 7.81425C5.60597 7.81893 5.58235 7.82126 5.5486 7.82126C5.54185 7.82126 5.52047 7.80958 5.48447 7.7862C5.46197 7.7862 5.44059 7.77334 5.42034 7.74763L5.39334 7.74062C5.37759 7.72425 5.36409 7.71607 5.35284 7.71607C5.34834 7.71139 5.30784 7.61672 5.23133 7.43205C5.22458 7.45776 5.22121 7.48114 5.22121 7.50218Z" fill="#0A3967"/>
<path d="M3.6649 6.25739C3.67615 6.22233 3.67503 6.14752 3.66153 6.03298C3.66153 5.99558 3.6514 5.94064 3.63115 5.86818C3.47814 5.89389 3.39714 5.90675 3.38814 5.90675C3.30939 5.91844 3.25426 5.92428 3.22276 5.92428C3.19351 5.92428 3.17438 5.92311 3.16538 5.92077C3.14738 5.9161 3.13838 5.89623 3.13838 5.86116C3.13838 5.82376 3.14738 5.79104 3.16538 5.76298C3.18338 5.73259 3.20026 5.71389 3.21601 5.70688C3.24976 5.68584 3.29926 5.66363 3.36451 5.64026C3.36451 5.63558 3.41964 5.61688 3.5299 5.58415C3.59965 5.55143 3.68853 5.52805 3.79653 5.51403C3.80553 5.51169 3.81228 5.51052 3.81678 5.51052L3.87416 5.5H3.97204L4.04967 5.52455C4.07892 5.5339 4.12505 5.56779 4.18805 5.62623L4.1948 5.64727C4.2128 5.6613 4.2218 5.67065 4.2218 5.67532C4.2218 5.68 4.22292 5.68701 4.22517 5.69636C4.22517 5.7548 4.20942 5.78987 4.17792 5.80155C4.16892 5.80389 4.14417 5.80272 4.10367 5.79805C4.02717 5.7887 3.97879 5.79104 3.95854 5.80506C3.95854 5.82844 3.96191 5.84831 3.96866 5.86467C3.97541 5.8787 3.98892 5.94064 4.00917 6.05051C4.00917 6.06688 4.01817 6.11714 4.03617 6.20129C4.05642 6.28311 4.06879 6.37544 4.07329 6.4783C4.09804 6.5344 4.11042 6.68986 4.11042 6.94466C4.11267 6.95868 4.1138 6.97855 4.1138 7.00427C4.10705 7.01829 4.10367 7.05336 4.10367 7.10946C4.09917 7.12816 4.09692 7.15154 4.09692 7.17959C4.09242 7.19595 4.08904 7.21699 4.08679 7.24271C4.08454 7.26608 4.08229 7.28478 4.08004 7.29881C4.07329 7.33855 4.06317 7.36543 4.04967 7.37946C4.03842 7.39115 4.02942 7.42504 4.02267 7.48114C4.02267 7.48582 4.01367 7.50218 3.99567 7.53023C3.97991 7.55829 3.96529 7.57699 3.95179 7.58634L3.92479 7.6179C3.92479 7.63192 3.90229 7.66231 3.85728 7.70906L3.83366 7.73712C3.82016 7.74647 3.79091 7.77686 3.74591 7.82828C3.74366 7.83763 3.71665 7.85049 3.6649 7.86685C3.6154 7.88322 3.5614 7.88322 3.5029 7.86685C3.47139 7.86218 3.43764 7.84114 3.40164 7.80374C3.39264 7.80608 3.38702 7.80608 3.38477 7.80374C3.36676 7.78504 3.33076 7.764 3.27676 7.74062C3.27226 7.7453 3.24526 7.72426 3.19576 7.67751C3.18451 7.67517 3.14288 7.63075 3.07088 7.54426C3.06863 7.53257 3.05738 7.50569 3.03713 7.46361C3.03713 7.46127 3.0315 7.44257 3.02025 7.40751C3.01125 7.37011 3.0045 7.31751 3 7.24972V7.22517C3 7.21115 3.0135 7.16907 3.0405 7.09894C3.0855 7.04518 3.14176 7.04401 3.20926 7.09544C3.21601 7.13284 3.22838 7.16673 3.24639 7.19712C3.26439 7.22517 3.27676 7.25206 3.28351 7.27777C3.29926 7.33621 3.33976 7.404 3.40502 7.48114C3.42977 7.50686 3.46352 7.52088 3.50627 7.52322C3.51527 7.52088 3.55015 7.49283 3.6109 7.43907C3.6199 7.42972 3.6289 7.41335 3.6379 7.38998C3.6604 7.35725 3.67165 7.33738 3.67165 7.33037C3.6739 7.32335 3.67953 7.30699 3.68853 7.28128C3.68853 7.27894 3.69753 7.25323 3.71553 7.20414C3.73578 7.16673 3.74028 7.11063 3.72903 7.03583C3.72678 7.03349 3.72565 7.02531 3.72565 7.01128C3.7189 6.95518 3.7144 6.92128 3.71215 6.90959V6.87804C3.7099 6.8757 3.70878 6.87219 3.70878 6.86752L3.71553 6.79739C3.70653 6.78336 3.6964 6.74596 3.68515 6.68518C3.66265 6.58466 3.6604 6.50284 3.6784 6.43973C3.6784 6.43739 3.67615 6.42804 3.67165 6.41168C3.66715 6.39298 3.66603 6.37544 3.66828 6.35908L3.6649 6.25739Z" fill="#0A3967"/>
<path d="M9.64566 10.2151L9.35596 9.51527H9.49659L9.71175 10.0632H9.66675L9.89317 9.51527H10.0338L9.7216 10.2151H9.64566ZM9.4544 10.5L9.65128 10.0807L9.7216 10.2151L9.59503 10.5H9.4544Z" fill="#0A3967"/>
<path d="M8.98543 10.2239C8.9348 10.2239 8.88886 10.2132 8.84761 10.1917C8.80729 10.1693 8.77495 10.1386 8.75057 10.0997C8.7262 10.0607 8.7126 10.0164 8.70979 9.96673V9.75781C8.7126 9.70716 8.7262 9.66284 8.75057 9.62485C8.77589 9.58589 8.8087 9.5557 8.84901 9.53427C8.89027 9.51187 8.93574 9.50067 8.98543 9.50067C9.04637 9.50067 9.10121 9.51674 9.14996 9.54888C9.19965 9.58102 9.23856 9.62437 9.26669 9.67891C9.29481 9.73345 9.30888 9.79482 9.30888 9.863C9.30888 9.93118 9.29481 9.99254 9.26669 10.0471C9.23856 10.1016 9.19965 10.145 9.14996 10.1771C9.10121 10.2083 9.04637 10.2239 8.98543 10.2239ZM8.96433 10.0997C9.00652 10.0997 9.04355 10.0895 9.07543 10.069C9.10731 10.0485 9.13262 10.0208 9.15137 9.98572C9.17012 9.94969 9.1795 9.90829 9.1795 9.86154C9.1795 9.81576 9.17012 9.77485 9.15137 9.73881C9.13262 9.70277 9.10731 9.67501 9.07543 9.65553C9.04355 9.63508 9.00699 9.62485 8.96574 9.62485C8.92355 9.62485 8.88652 9.63508 8.85464 9.65553C8.82276 9.67501 8.79792 9.70277 8.78011 9.73881C8.76229 9.77485 8.75339 9.81625 8.75339 9.863C8.75339 9.90878 8.76182 9.94969 8.7787 9.98572C8.79651 10.0208 8.82136 10.0485 8.85323 10.069C8.88605 10.0895 8.92308 10.0997 8.96433 10.0997ZM8.63385 10.2093V9.16609H8.76042V9.68475L8.73651 9.85277L8.76042 10.0223V10.2093H8.63385Z" fill="#0A3967"/>
<path fill-rule="evenodd" clip-rule="evenodd" d="M12.271 9.44824L12.0932 9.70195C12.0261 9.6591 11.9442 9.62758 11.8396 9.62758C11.5923 9.62758 11.4918 9.77257 11.4918 9.87471C11.4918 9.95053 11.5549 10.0624 11.775 10.0624C11.8674 10.0624 11.9988 10.0119 12.0366 9.98885L11.8608 10.2832C11.7769 10.2963 11.7494 10.3045 11.6785 10.3062C11.2845 10.3155 11.1253 10.1252 11.1254 9.9307C11.1257 9.67363 11.4163 9.36099 11.8982 9.36099C11.9277 9.36099 11.9638 9.36903 11.9947 9.37793L12.0259 9.34654" fill="#0A3967"/>
<path fill-rule="evenodd" clip-rule="evenodd" d="M12.9523 9.35487L13 10.3196H12.6447L12.6445 10.1541H12.4022L12.3225 10.3196H11.9371L12.34 9.6307L12.2491 9.63019L12.4217 9.35487H12.9523ZM12.6422 9.64999L12.5053 9.9306H12.6464L12.6422 9.64999Z" fill="#0A3967"/>
<path fill-rule="evenodd" clip-rule="evenodd" d="M10.945 9.35486C11.121 9.35572 11.2204 9.43856 11.2204 9.55822C11.2204 9.66855 11.1156 9.7662 11.0005 9.81669C11.119 9.85449 11.1292 9.94725 11.1292 10.0129C11.1292 10.1714 10.9458 10.3196 10.7074 10.3196H10.1874L10.3902 9.64028L10.3069 9.63987L10.4772 9.35486C10.4772 9.35486 10.802 9.35401 10.945 9.35486ZM10.7724 9.74601C10.8088 9.74601 10.8731 9.73801 10.8892 9.67692C10.9068 9.61058 10.8464 9.6088 10.8175 9.6088L10.7141 9.60841L10.6781 9.74601H10.7724ZM10.6263 9.91648L10.5787 10.075H10.7004C10.7483 10.075 10.8135 10.0544 10.8295 10.0028C10.8453 9.95107 10.7997 9.91648 10.752 9.91648H10.6263Z" fill="#0A3967"/>
<path d="M17.6087 9C16.2522 2.76 10.6377 0 8 -0.6V-3H21V9H17.6087Z" fill="#E4EDFF" stroke="#E4EDFF"/>
<path d="M-1.6087 7C-0.252173 13.24 5.36232 16 8 16.6V19H-5V7H-1.6087Z" fill="#E4EDFF" stroke="#E4EDFF"/>
</g>
<defs>
<clipPath id="clip0_3201_5159">
<rect width="16" height="16" rx="3" fill="white"/>
</clipPath>
</defs>
</svg>
