<svg width="26" height="26" viewBox="0 0 26 26" fill="none" xmlns="http://www.w3.org/2000/svg">
<path fill-rule="evenodd" clip-rule="evenodd" d="M5.7153 10.97C5.41797 11.6165 5.41797 12.3519 5.41797 13.8228V18.4166C5.41797 20.4594 5.41797 21.4807 6.05257 22.1153C6.63782 22.7006 7.55203 22.7461 9.29297 22.7496V17.3333C9.29297 16.1827 10.2257 15.25 11.3763 15.25H14.6263C15.7769 15.25 16.7096 16.1827 16.7096 17.3333V22.7496C18.4506 22.7461 19.3648 22.7006 19.95 22.1153C20.5846 21.4807 20.5846 20.4594 20.5846 18.4166V13.8228C20.5846 12.3519 20.5846 11.6165 20.2873 10.97C19.99 10.3236 19.4316 9.84493 18.3148 8.88768L17.2314 7.9591C15.2129 6.22888 14.2036 5.36377 13.0013 5.36377C11.799 5.36377 10.7898 6.22888 8.77116 7.9591L7.68782 8.88768C6.57103 9.84493 6.01263 10.3236 5.7153 10.97ZM14.7096 22.7499V17.3333C14.7096 17.2873 14.6723 17.25 14.6263 17.25H11.3763C11.3303 17.25 11.293 17.2873 11.293 17.3333V22.7499H14.7096Z" fill="#0066AE"/>
</svg>
