<svg width="20" height="21" viewBox="0 0 20 21" fill="none" xmlns="http://www.w3.org/2000/svg">
<path d="M13.3307 7.16667V6.33333C13.3307 4.49239 11.8383 3 9.9974 3V3C8.15645 3 6.66406 4.49239 6.66406 6.33333V7.16667" stroke="#0066AE" stroke-width="2" stroke-linecap="round"/>
<path fill-rule="evenodd" clip-rule="evenodd" d="M3.05332 7.59748C2.5 8.37731 2.5 9.48175 2.5 11.6906C2.5 14.6358 2.5 16.1084 3.23776 17.1482C3.49808 17.5151 3.81843 17.8354 4.18531 18.0957C5.22509 18.8335 6.69768 18.8335 9.64286 18.8335H10.3571C13.3023 18.8335 14.7749 18.8335 15.8147 18.0957C16.1816 17.8354 16.5019 17.5151 16.7622 17.1482C17.5 16.1084 17.5 14.6358 17.5 11.6906C17.5 9.48175 17.5 8.37731 16.9467 7.59748C16.7514 7.32232 16.5112 7.08205 16.236 6.88681C15.4562 6.3335 14.3517 6.3335 12.1429 6.3335H7.85714C5.64826 6.3335 4.54381 6.3335 3.76399 6.88681C3.48882 7.08205 3.24856 7.32232 3.05332 7.59748ZM10 12.6668C10.2761 12.6668 10.5 12.443 10.5 12.1668C10.5 11.8907 10.2761 11.6668 10 11.6668C9.72386 11.6668 9.5 11.8907 9.5 12.1668C9.5 12.443 9.72386 12.6668 10 12.6668ZM12.5 12.1668C12.5 13.192 11.883 14.073 11 14.4588V16.3335H9V14.4588C8.11705 14.073 7.5 13.192 7.5 12.1668C7.5 10.7861 8.61929 9.66683 10 9.66683C11.3807 9.66683 12.5 10.7861 12.5 12.1668Z" fill="#0066AE"/>
</svg>
