<svg width="26" height="26" viewBox="0 0 26 26" fill="none" xmlns="http://www.w3.org/2000/svg">
<path d="M19.8346 6.5H6.16797C4.28235 6.5 3.33954 6.5 2.75376 7.08579C2.16797 7.67157 2.16797 8.61438 2.16797 10.5V14.1667C2.16797 14.6381 2.16797 14.8738 2.31442 15.0202C2.46086 15.1667 2.69656 15.1667 3.16797 15.1667H8.36797C8.50939 15.1667 8.5801 15.1667 8.62403 15.1227C8.66797 15.0788 8.66797 15.0081 8.66797 14.8667V14.4583C8.66797 13.5155 8.66797 13.0441 8.96086 12.7512C9.25376 12.4583 9.72516 12.4583 10.668 12.4583H15.3346C16.2774 12.4583 16.7488 12.4583 17.0417 12.7512C17.3346 13.0441 17.3346 13.5155 17.3346 14.4583V14.8667C17.3346 15.0081 17.3346 15.0788 17.3786 15.1227C17.4225 15.1667 17.4932 15.1667 17.6346 15.1667H21.8346C22.7774 15.1667 23.2488 15.1667 23.5417 14.8738C23.8346 14.5809 23.8346 14.1095 23.8346 13.1667V10.5C23.8346 8.61438 23.8346 7.67157 23.2488 7.08579C22.6631 6.5 21.7203 6.5 19.8346 6.5Z" fill="#0066AE"/>
<path d="M7.58203 4.05081C7.58203 3.22022 7.58203 2.80492 7.81355 2.52687C7.85243 2.48019 7.89547 2.43714 7.94215 2.39827C8.22021 2.16675 8.6355 2.16675 9.46609 2.16675H16.5313C17.3619 2.16675 17.7772 2.16675 18.0552 2.39827C18.1019 2.43714 18.145 2.48019 18.1838 2.52687C18.4154 2.80492 18.4154 3.22022 18.4154 4.05081C18.4154 4.17539 18.4154 4.23769 18.3806 4.2794C18.3748 4.2864 18.3683 4.29286 18.3613 4.29869C18.3196 4.33341 18.2573 4.33341 18.1328 4.33341H7.86464C7.74005 4.33341 7.67776 4.33341 7.63605 4.29869C7.62905 4.29286 7.62259 4.2864 7.61676 4.2794C7.58203 4.23769 7.58203 4.17539 7.58203 4.05081Z" fill="#0066AE"/>
<path fill-rule="evenodd" clip-rule="evenodd" d="M5.41797 22.0872L5.41797 13.9168C5.41797 12.9739 5.41797 12.5025 5.71086 12.2096C6.00375 11.9168 6.47516 11.9168 7.41797 11.9168H7.41797L18.5846 11.9167C19.5274 11.9167 19.9988 11.9167 20.2917 12.2096C20.5846 12.5025 20.5846 12.9739 20.5846 13.9167V22.0872C20.5846 22.3912 20.5846 22.5432 20.4852 22.6182C20.3857 22.6932 20.2396 22.6515 19.9473 22.568L19.9473 22.568L19.9473 22.568L16.9303 21.706L16.9303 21.706L16.9303 21.706C16.8621 21.6865 16.828 21.6768 16.793 21.6768C16.758 21.6768 16.7239 21.6865 16.6557 21.706L16.6556 21.706L16.6556 21.706L13.1387 22.7108C13.0704 22.7303 13.0363 22.7401 13.0013 22.7401C12.9663 22.7401 12.9322 22.7303 12.8639 22.7108L9.347 21.706C9.27877 21.6865 9.24465 21.6768 9.20964 21.6768C9.17462 21.6768 9.14051 21.6865 9.07228 21.706L6.05533 22.568C5.76302 22.6515 5.61687 22.6933 5.51742 22.6182C5.41797 22.5432 5.41797 22.3912 5.41797 22.0872ZM9.83464 15.1667C9.83464 14.6145 10.2824 14.1667 10.8346 14.1667L14.0846 14.1667C14.6369 14.1667 15.0846 14.6145 15.0846 15.1667C15.0846 15.719 14.6369 16.1667 14.0846 16.1667L10.8346 16.1667C10.2824 16.1667 9.83464 15.719 9.83464 15.1667ZM10.8346 17.4167C10.2824 17.4167 9.83464 17.8645 9.83464 18.4167C9.83464 18.969 10.2824 19.4167 10.8346 19.4167H15.7096C16.2619 19.4167 16.7096 18.969 16.7096 18.4167C16.7096 17.8645 16.2619 17.4167 15.7096 17.4167L10.8346 17.4167Z" fill="#0066AE"/>
</svg>
