<svg width="26" height="26" viewBox="0 0 26 26" fill="none" xmlns="http://www.w3.org/2000/svg">
<path d="M8.66667 2.16675L7.95956 1.45964L8.66667 0.752534L9.37377 1.45964L8.66667 2.16675ZM9.66667 18.4167C9.66667 18.969 9.21895 19.4167 8.66667 19.4167C8.11438 19.4167 7.66667 18.969 7.66667 18.4167L9.66667 18.4167ZM2.54289 6.87631L7.95956 1.45964L9.37377 2.87385L3.95711 8.29052L2.54289 6.87631ZM9.37377 1.45964L14.7904 6.87631L13.3762 8.29052L7.95956 2.87385L9.37377 1.45964ZM9.66667 2.16675L9.66667 18.4167L7.66667 18.4167L7.66667 2.16675L9.66667 2.16675Z" fill="#0066AE"/>
<path d="M17.3346 23.8333L16.6275 24.5404L17.3346 25.2475L18.0417 24.5404L17.3346 23.8333ZM18.3346 7.58325C18.3346 7.03097 17.8869 6.58325 17.3346 6.58325C16.7824 6.58325 16.3346 7.03097 16.3346 7.58325L18.3346 7.58325ZM11.2109 19.1237L16.6275 24.5404L18.0417 23.1261L12.6251 17.7095L11.2109 19.1237ZM18.0417 24.5404L23.4584 19.1237L22.0442 17.7095L16.6275 23.1261L18.0417 24.5404ZM18.3346 23.8333L18.3346 7.58325L16.3346 7.58325L16.3346 23.8333L18.3346 23.8333Z" fill="#0066AE"/>
</svg>
