<svg width="30" height="30" viewBox="0 0 30 30" fill="none" xmlns="http://www.w3.org/2000/svg">
  <path d="M10 2.5L9.29289 1.79289L10 1.08579L10.7071 1.79289L10 2.5ZM11 21.25C11 21.8023 10.5523 22.25 10 22.25C9.44772 22.25 9 21.8023 9 21.25L11 21.25ZM3.04289 8.04289L9.29289 1.79289L10.7071 3.20711L4.45711 9.45711L3.04289 8.04289ZM10.7071 1.79289L16.9571 8.04289L15.5429 9.45711L9.29289 3.20711L10.7071 1.79289ZM11 2.5L11 21.25L9 21.25L9 2.5L11 2.5Z" fill="#0066AE"/>
  <path d="M20 27.5L19.2929 28.2071L20 28.9142L20.7071 28.2071L20 27.5ZM21 8.75C21 8.19772 20.5523 7.75 20 7.75C19.4477 7.75 19 8.19772 19 8.75L21 8.75ZM13.0429 21.9571L19.2929 28.2071L20.7071 26.7929L14.4571 20.5429L13.0429 21.9571ZM20.7071 28.2071L26.9571 21.9571L25.5429 20.5429L19.2929 26.7929L20.7071 28.2071ZM21 27.5L21 8.75L19 8.75L19 27.5L21 27.5Z" fill="#0066AE"/>
</svg>
